<svg width="375" height="207" viewBox="0 0 375 207" fill="none" xmlns="http://www.w3.org/2000/svg">
<g clip-path="url(#clip0_385_2)">
<path d="M281.063 138.747L237.575 138.747L237.575 26.0002L288.97 26.0002L298.78 66.999L300.098 66.999L299.512 26.0002L334.496 26.0002C335.613 26.0002 336.719 26.2202 337.751 26.6476C338.782 27.0749 339.72 27.7013 340.509 28.4909C341.299 29.2805 341.926 30.218 342.353 31.2497C342.78 32.2814 343 33.3872 343 34.5039L343 130.243C343 131.36 342.78 132.466 342.353 133.497C341.926 134.529 341.299 135.467 340.509 136.256C339.72 137.046 338.782 137.672 337.751 138.1C336.719 138.527 335.613 138.747 334.496 138.747L295.559 138.747L281.648 86.0342L280.331 86.0342L281.063 138.747Z" fill="white"/>
<path d="M246.802 138.747L199.36 138.747L197.896 125.276L177.104 125.276L175.639 138.747L128.198 138.747L157.19 25.9998L217.81 25.9998L246.802 138.747ZM183.546 67.7309L181.936 81.7877L193.064 81.7877L191.453 67.7309L183.546 67.7309Z" fill="white"/>
<path d="M129.246 84.4668C129.708 83.1244 119.648 73.2624 106.059 70.1533C100.438 68.6631 93.6924 67.6387 85.8228 67.0798C85.167 66.9868 84.5112 66.9401 83.8555 66.9401C83.2933 66.8471 82.7312 66.8004 82.1691 66.8004C80.2016 66.8004 79.2179 67.5921 79.2179 69.1754C79.2179 70.1067 79.7332 70.7587 80.7638 71.1312C81.888 71.4106 83.387 71.6434 85.2607 71.8297C88.9145 72.2954 92.7556 72.8542 96.7842 73.5061C100.813 74.0649 104.748 74.9497 108.589 76.1605C112.43 77.3712 115.896 79.1408 118.988 81.4691C122.173 83.7975 124.656 86.8709 126.436 90.6895C128.31 94.508 129.246 99.3044 129.246 105.079L129.246 138.747L112.523 138.747L95.0978 138.747L75.002 138.747L50.9715 138.747L39.3137 138.747C37.4033 138.747 35.571 137.993 34.2188 136.652C32.8667 135.31 32.1052 133.49 32.1015 131.591L32 79.6323C33.4669 83.4507 38.4533 88.1652 41.6966 89.7115C44.6945 91.4811 48.7698 93.111 53.9226 94.6011C59.0754 96.0913 65.8676 97.2554 74.2994 98.0937C74.7678 98.1867 75.1895 98.2333 75.5642 98.2333L76.8289 98.2333C77.8595 98.2333 78.609 98.0936 79.0774 97.8142C79.6395 97.5348 79.9206 96.9295 79.9206 95.9981C79.9206 94.9736 79.4522 94.3217 78.5153 94.0423C77.6721 93.7629 76.3136 93.4835 74.4399 93.2041C69.3808 92.6453 64.3218 91.8536 59.2628 90.8292C54.2974 89.8047 49.7536 88.2214 45.6314 86.0793C41.5091 83.9372 38.1833 80.9569 35.6538 77.1384C33.218 73.3199 32 68.3372 32 62.1903C32 53.4356 34.0611 46.4971 38.1832 41.3747C42.3992 36.1592 48.0672 32.4338 55.1873 30.1986C62.3075 27.8702 70.2709 26.706 79.0774 26.706L102.265 26.706L122.048 26.706C122.993 26.706 123.929 26.8911 124.803 27.2507C125.676 27.6103 126.47 28.1374 127.138 28.8019C127.807 29.4664 128.337 30.2552 128.698 31.1234C129.06 31.9916 129.246 32.9221 129.246 33.8618L129.246 84.4668Z" fill="white"/>
<path d="M221.416 85.2664C221.202 85.3565 220.988 85.4462 220.774 85.5364C213.227 88.7072 205.502 91.8108 197.712 94.8013C189.923 97.7919 182.107 100.655 174.378 103.349C174.229 103.401 174.08 103.453 173.931 103.505C181.779 108.476 192.243 109.767 201.865 106.295C211.938 102.661 218.855 94.6198 221.416 85.2664Z" fill="#282828"/>
<path d="M225.63 87.232C223.476 88.1482 221.286 89.0677 219.063 89.9891C218.978 90.0274 218.89 90.061 218.803 90.0966C217.593 93.3675 215.458 96.4872 212.588 99.1797C209.718 101.872 206.201 104.055 202.348 105.534C198.495 107.013 194.425 107.744 190.498 107.661C186.571 107.578 182.908 106.684 179.833 105.059C179.745 105.091 179.657 105.121 179.568 105.152C177.3 105.956 175.058 106.737 172.845 107.498C176.688 110.37 181.655 112.13 187.176 112.577C192.696 113.023 198.547 112.138 204.058 110.022C209.568 107.907 214.514 104.647 218.33 100.616C222.145 96.5848 224.675 91.946 225.63 87.232Z" fill="#FB961E"/>
<path d="M176.009 38.0774C161.402 43.6854 150.454 54.64 146.418 66.7567C144.355 72.9513 139.583 80.5789 133.272 83.5766C94.4882 101.997 71.0868 118.295 73.7778 125.361C77.1237 134.15 119.763 126.452 175.657 106.97C183.386 104.276 191.202 101.413 198.991 98.4223C206.78 95.4318 214.505 92.3285 222.052 89.1576C276.633 66.2256 313.508 43.3951 310.16 34.6076C307.468 27.5411 279.207 31.0787 238.078 43.3388C231.384 45.3339 222.761 42.8489 217.108 39.6169C206.05 33.2951 190.615 32.4696 176.009 38.0774Z" fill="#FA961E"/>
<path d="M176.973 40.6088C164.692 45.324 155.636 55.0633 152.122 66.3326C149.787 73.8228 144.505 83.0514 137.022 86.8476C111.714 99.6879 97.0956 110.725 99.0627 115.888C101.513 122.319 129.125 118.269 167.694 105.821C177.482 102.662 187.636 99.0692 197.758 95.1836C207.879 91.2975 217.831 87.1712 227.22 82.9673C264.221 66.4019 287.48 50.9213 285.031 44.4894C283.065 39.326 264.842 40.8975 237.458 48.2877C229.362 50.4726 219.295 47.1369 212.578 43.1221C202.472 37.0816 189.254 35.8938 176.973 40.6088Z" fill="#ED7922"/>
<path d="M177.956 43.7892C164.396 48.9952 155.143 60.6977 153.504 73.4704C152.797 78.9844 149.388 85.5187 144.067 88.3318C127.232 97.2311 117.879 104.604 119.228 108.146C120.912 112.571 138.976 110.244 165.492 102.186C175.31 99.2028 185.842 95.5659 196.365 91.5261C206.733 87.5451 216.851 83.2654 226.04 78.9732C251.375 67.1409 266.56 56.6819 264.866 52.2314C263.506 48.6612 251.463 49.4775 232.777 54.2189C226.945 55.6984 220.061 53.1222 215.866 49.4934C206.156 41.0962 191.502 38.5887 177.956 43.7892Z" fill="#DC5925"/>
<path d="M179.246 46.5783C165.457 51.8725 156.425 64.13 155.672 77.0841C155.359 82.4769 152.388 88.8166 147.348 91.8278C140.095 96.1613 136.376 99.5321 137.051 101.303C138.013 103.825 147.765 102.789 163.147 98.5293C172.684 95.8885 183.787 92.1724 194.975 87.8771C206.163 83.5818 216.903 78.9116 225.762 74.4898C240.05 67.3582 248.002 61.5974 247.043 59.0742C246.369 57.3031 241.359 57.2831 233.076 58.9143C227.321 60.0477 220.895 57.3157 217.078 53.5087C207.909 44.364 193.036 41.2844 179.246 46.5783Z" fill="#D23C2B"/>
<path d="M219.941 68.2131C221.268 72.7939 163.861 96.5623 161.557 89.2789C156.588 73.5711 164.627 56.465 180.749 50.6478C196.872 44.8307 215.357 52.3854 219.941 68.2131Z" fill="#282828"/>
<path d="M64.209 188L82.385 143.584L86.737 143.584L104.849 188L98.321 188L83.409 150.432L85.649 150.432L70.609 188L64.209 188ZM72.849 177.952L72.849 172.704L96.209 172.704L96.209 177.952L72.849 177.952ZM119.762 188.64C116.775 188.64 114.066 187.936 111.634 186.528C109.245 185.12 107.346 183.221 105.938 180.832C104.573 178.4 103.89 175.712 103.89 172.768C103.89 169.781 104.573 167.093 105.938 164.704C107.346 162.314 109.245 160.437 111.634 159.072C114.066 157.664 116.775 156.96 119.762 156.96C122.109 156.96 124.285 157.408 126.29 158.304C128.295 159.157 130.023 160.416 131.474 162.08L127.634 165.92C126.695 164.81 125.543 163.978 124.178 163.424C122.855 162.826 121.383 162.528 119.762 162.528C117.842 162.528 116.135 162.976 114.642 163.872C113.149 164.725 111.975 165.92 111.122 167.456C110.269 168.992 109.842 170.762 109.842 172.768C109.842 174.773 110.269 176.544 111.122 178.08C111.975 179.616 113.149 180.832 114.642 181.728C116.135 182.624 117.842 183.072 119.762 183.072C121.383 183.072 122.855 182.794 124.178 182.24C125.543 181.642 126.717 180.789 127.698 179.68L131.474 183.52C130.066 185.141 128.338 186.4 126.29 187.296C124.285 188.192 122.109 188.64 119.762 188.64ZM146.289 188.64C143.516 188.64 140.999 187.957 138.737 186.592C136.476 185.184 134.684 183.285 133.361 180.896C132.081 178.506 131.441 175.818 131.441 172.832C131.441 169.845 132.081 167.157 133.361 164.768C134.684 162.378 136.455 160.48 138.673 159.072C140.935 157.664 143.473 156.96 146.289 156.96C148.593 156.96 150.641 157.45 152.433 158.432C154.268 159.37 155.74 160.693 156.849 162.4C157.959 164.064 158.577 166.005 158.705 168.224L158.705 177.376C158.577 179.552 157.959 181.493 156.849 183.2C155.783 184.906 154.332 186.25 152.497 187.232C150.705 188.17 148.636 188.64 146.289 188.64ZM147.249 183.2C150.108 183.2 152.412 182.24 154.161 180.32C155.911 178.357 156.785 175.861 156.785 172.832C156.785 170.741 156.38 168.928 155.569 167.392C154.801 165.813 153.692 164.597 152.241 163.744C150.791 162.848 149.105 162.4 147.185 162.4C145.265 162.4 143.559 162.848 142.065 163.744C140.615 164.64 139.463 165.877 138.609 167.456C137.799 168.992 137.393 170.762 137.393 172.768C137.393 174.816 137.799 176.629 138.609 178.208C139.463 179.744 140.636 180.96 142.129 181.856C143.623 182.752 145.329 183.2 147.249 183.2ZM156.401 188L156.401 179.808L157.489 172.384L156.401 165.024L156.401 157.6L162.225 157.6L162.225 188L156.401 188ZM180.275 188.64C177.459 188.64 174.942 187.957 172.723 186.592C170.505 185.184 168.734 183.285 167.411 180.896C166.131 178.506 165.491 175.818 165.491 172.832C165.491 169.845 166.131 167.157 167.411 164.768C168.734 162.378 170.505 160.48 172.723 159.072C174.942 157.664 177.46 156.96 180.276 156.96C182.537 156.96 184.585 157.45 186.419 158.432C188.254 159.37 189.726 160.693 190.835 162.4C191.988 164.064 192.628 166.005 192.755 168.224L192.755 177.376C192.627 179.552 192.009 181.493 190.9 183.2C189.79 184.906 188.318 186.25 186.483 187.232C184.649 188.17 182.579 188.64 180.275 188.64ZM181.235 183.2C183.155 183.2 184.819 182.752 186.227 181.856C187.678 180.96 188.809 179.744 189.619 178.208C190.43 176.629 190.835 174.837 190.835 172.832C190.835 170.741 190.409 168.928 189.556 167.392C188.745 165.856 187.614 164.64 186.164 163.744C184.755 162.848 183.091 162.4 181.172 162.4C179.252 162.4 177.566 162.848 176.115 163.744C174.665 164.64 173.513 165.877 172.659 167.456C171.849 168.992 171.443 170.762 171.443 172.768C171.443 174.816 171.849 176.629 172.659 178.208C173.513 179.744 174.665 180.96 176.115 181.856C177.609 182.752 179.315 183.2 181.235 183.2ZM196.275 188L190.451 188L190.452 179.808L191.539 172.384L190.452 165.024L190.452 142.304L196.276 142.304L196.275 188ZM215.541 188.64C212.512 188.64 209.781 187.957 207.349 186.592C204.917 185.184 202.997 183.285 201.589 180.896C200.181 178.506 199.477 175.797 199.477 172.768C199.477 169.781 200.16 167.093 201.525 164.704C202.933 162.314 204.811 160.437 207.157 159.072C209.547 157.664 212.213 156.96 215.157 156.96C217.973 156.96 220.448 157.6 222.581 158.88C224.757 160.16 226.443 161.93 227.637 164.192C228.875 166.453 229.493 169.013 229.493 171.872C229.493 172.298 229.472 172.768 229.429 173.28C229.387 173.749 229.301 174.304 229.173 174.944L203.509 174.944L203.509 170.144L226.101 170.144L223.989 172C223.989 169.952 223.627 168.224 222.901 166.816C222.176 165.365 221.152 164.256 219.829 163.488C218.507 162.677 216.907 162.272 215.029 162.272C213.067 162.272 211.339 162.698 209.845 163.552C208.352 164.405 207.2 165.6 206.389 167.136C205.579 168.672 205.173 170.485 205.173 172.576C205.173 174.709 205.6 176.586 206.453 178.208C207.307 179.786 208.523 181.024 210.101 181.92C211.68 182.773 213.493 183.2 215.541 183.2C217.248 183.2 218.805 182.901 220.213 182.304C221.664 181.706 222.901 180.81 223.925 179.616L227.637 183.392C226.187 185.098 224.395 186.4 222.261 187.296C220.171 188.192 217.931 188.64 215.541 188.64ZM232.574 188L232.574 157.6L238.334 157.6L238.334 188L232.574 188ZM253.118 188L253.118 169.632C253.118 167.37 252.414 165.6 251.006 164.32C249.641 162.997 247.913 162.336 245.822 162.336C244.414 162.336 243.155 162.634 242.046 163.232C240.937 163.829 240.041 164.661 239.358 165.728C238.675 166.794 238.334 168.074 238.334 169.568L235.966 168.416C235.966 166.112 236.457 164.106 237.438 162.4C238.462 160.693 239.849 159.37 241.598 158.432C243.347 157.45 245.31 156.96 247.486 156.96C249.619 156.96 251.539 157.429 253.246 158.368C254.995 159.306 256.361 160.629 257.342 162.336C258.366 164.042 258.878 166.069 258.878 168.416L258.878 188L253.118 188ZM273.662 188L273.662 169.632C273.662 167.37 272.958 165.6 271.55 164.32C270.185 162.997 268.478 162.336 266.43 162.336C265.022 162.336 263.742 162.634 262.59 163.232C261.481 163.829 260.585 164.661 259.902 165.728C259.219 166.794 258.878 168.074 258.878 169.568L255.614 168.416C255.742 166.069 256.361 164.064 257.47 162.4C258.622 160.693 260.094 159.37 261.886 158.432C263.678 157.45 265.641 156.96 267.774 156.96C269.993 156.96 271.977 157.429 273.726 158.368C275.475 159.306 276.862 160.629 277.886 162.336C278.953 164.042 279.486 166.09 279.486 168.48L279.486 188L273.662 188ZM294.108 188.256L280.924 157.6L287.324 157.6L297.116 181.6L295.068 181.6L305.372 157.6L311.772 157.6L297.564 188.256L294.108 188.256ZM285.404 200.736L294.364 182.368L297.564 188.256L291.804 200.736L285.404 200.736Z" fill="#DBDBDB" fill-opacity="0.73"/>
</g>
<defs>
<clipPath id="clip0_385_2">
<rect width="375" height="207" fill="white"/>
</clipPath>
</defs>
</svg>
