<svg width="311" height="172" viewBox="0 0 311 172" fill="none" xmlns="http://www.w3.org/2000/svg">
<g clip-path="url(#clip0_396_4)">
<path d="M249.063 112.747L205.575 112.747L205.575 0.000244141L256.97 0.000246387L266.78 40.999L268.098 40.999L267.512 0.000246848L302.496 0.000248377C303.613 0.00024834 304.719 0.220206 305.751 0.647555C306.782 1.0749 307.72 1.70126 308.509 2.49089C309.299 3.28053 309.926 4.21797 310.353 5.24968C310.78 6.28139 311 7.38717 311 8.50388L311 104.243C311 105.36 310.78 106.466 310.353 107.497C309.926 108.529 309.299 109.467 308.509 110.256C307.72 111.046 306.782 111.672 305.751 112.1C304.719 112.527 303.613 112.747 302.496 112.747L263.559 112.747L249.648 60.0342L248.331 60.0342L249.063 112.747Z" fill="white"/>
<path d="M214.802 112.747L167.36 112.747L165.896 99.2758L145.104 99.2758L143.639 112.747L96.1977 112.747L125.19 -0.000242873L185.81 -0.000240224L214.802 112.747ZM151.546 41.7309L149.936 55.7877L161.064 55.7877L159.453 41.7309L151.546 41.7309Z" fill="white"/>
<path d="M97.2464 58.4669C97.7077 57.1245 87.6481 47.2625 74.0591 44.1533C68.4379 42.6632 61.6924 41.6387 53.8228 41.0799C53.167 40.9868 52.5112 40.9402 51.8555 40.9402C51.2933 40.8471 50.7312 40.8005 50.1691 40.8005C48.2016 40.8005 47.2179 41.5921 47.2179 43.1754C47.2179 44.1068 47.7332 44.7587 48.7638 45.1313C49.888 45.4107 51.387 45.6435 53.2607 45.8298C56.9145 46.2954 60.7556 46.8542 64.7842 47.5062C68.8127 48.065 72.7475 48.9498 76.5886 50.1605C80.4298 51.3713 83.8962 53.1408 86.9878 55.4692C90.1732 57.7976 92.6559 60.871 94.4359 64.6895C96.3096 68.508 97.2464 73.3045 97.2464 79.0788L97.2464 112.747L80.5235 112.747L63.0978 112.747L43.002 112.747L18.9715 112.747L7.31368 112.747C5.40331 112.747 3.57098 111.993 2.21883 110.652C0.866684 109.31 0.105211 107.49 0.101501 105.591L-2.31348e-06 53.6324C1.46686 57.4507 6.45335 62.1653 9.69657 63.7116C12.6945 65.4812 16.7698 67.111 21.9226 68.6012C27.0754 70.0913 33.8676 71.2555 42.2994 72.0937C42.7678 72.1868 43.1895 72.2334 43.5642 72.2334L44.8289 72.2334C45.8595 72.2334 46.609 72.0937 47.0774 71.8143C47.6395 71.5349 47.9206 70.9295 47.9206 69.9982C47.9206 68.9737 47.4522 68.3218 46.5153 68.0424C45.6721 67.7629 44.3136 67.4836 42.4399 67.2041C37.3808 66.6453 32.3218 65.8537 27.2628 64.8292C22.2974 63.8047 17.7536 62.2214 13.6314 60.0793C9.50913 57.9373 6.18328 54.957 3.6538 51.1384C1.21795 47.3199 -1.81976e-06 42.3372 -1.55107e-06 36.1903C-1.16839e-06 27.4357 2.0611 20.4972 6.18323 15.3748C10.3992 10.1593 16.0672 6.43386 23.1873 4.19863C30.3075 1.87027 38.2709 0.706056 47.0774 0.706057L70.2649 0.706058L90.0482 0.706059C90.9934 0.706059 91.9295 0.891169 92.8028 1.25078C93.6761 1.6104 94.4697 2.13748 95.1381 2.80196C95.8065 3.46644 96.3367 4.25528 96.6985 5.12346C97.0602 5.99165 97.2464 6.92217 97.2464 7.86188L97.2464 58.4669Z" fill="white"/>
<path d="M189.416 59.2664C189.202 59.3565 188.988 59.4462 188.774 59.5364C181.227 62.7072 173.502 65.8108 165.712 68.8013C157.923 71.7919 150.107 74.6551 142.378 77.349C142.229 77.4011 142.08 77.4533 141.931 77.5052C149.779 82.4757 160.243 83.7669 169.865 80.2951C179.938 76.6606 186.855 68.6198 189.416 59.2664Z" fill="#282828"/>
<path d="M193.63 61.2321C191.476 62.1483 189.286 63.0677 187.063 63.9891C186.978 64.0275 186.89 64.061 186.803 64.0967C185.593 67.3676 183.458 70.4873 180.588 73.1798C177.718 75.8723 174.201 78.0547 170.348 79.5339C166.495 81.0132 162.425 81.7436 158.498 81.6607C154.571 81.5778 150.908 80.6841 147.833 79.0586C147.745 79.0912 147.657 79.1212 147.568 79.1525C145.3 79.9557 143.058 80.7375 140.845 81.4979C144.688 84.37 149.655 86.1303 155.176 86.5768C160.696 87.0233 166.547 86.1381 172.058 84.0226C177.568 81.9069 182.514 78.6467 186.33 74.6158C190.145 70.5848 192.675 65.946 193.63 61.2321Z" fill="#FB961E"/>
<path d="M144.009 12.0774C129.402 17.6853 118.454 28.64 114.418 40.7567C112.355 46.9513 107.583 54.5788 101.272 57.5766C62.4882 75.9974 39.0868 92.2945 41.7778 99.3612C45.1237 108.15 87.7625 100.452 143.657 80.97C151.386 78.276 159.202 75.4129 166.991 72.4223C174.78 69.4318 182.505 66.3284 190.052 63.1576C244.633 40.2256 281.508 17.3951 278.16 8.60756C275.468 1.54109 247.207 5.07859 206.078 17.3387C199.384 19.3339 190.761 16.8488 185.108 13.6168C174.05 7.29501 158.615 6.46955 144.009 12.0774Z" fill="#FA961E"/>
<path d="M144.973 14.6088C132.692 19.324 123.636 29.0633 120.122 40.3326C117.787 47.8228 112.505 57.0514 105.022 60.8476C79.7136 73.6879 65.0956 84.725 67.0627 89.8877C69.513 96.319 97.1251 92.2689 135.694 79.8208C145.482 76.6622 155.636 73.0692 165.758 69.1836C175.879 65.2975 185.831 61.1712 195.22 56.9673C232.221 40.4019 255.48 24.9213 253.031 18.4894C251.065 13.326 232.842 14.8975 205.458 22.2877C197.362 24.4726 187.295 21.1369 180.578 17.1221C170.472 11.0816 157.254 9.89378 144.973 14.6088Z" fill="#ED7922"/>
<path d="M145.956 17.7891C132.396 22.9951 123.143 34.6977 121.504 47.4703C120.797 52.9843 117.388 59.5186 112.067 62.3317C95.232 71.231 85.8786 78.6034 87.2279 82.1457C88.9121 86.5707 106.976 84.2438 133.492 76.1862C143.31 73.2027 153.842 69.5658 164.365 65.526C174.733 61.545 184.851 57.2653 194.04 52.9732C219.375 41.1409 234.56 30.6818 232.866 26.2313C231.506 22.6611 219.463 23.4775 200.777 28.2188C194.945 29.6984 188.061 27.1221 183.866 23.4934C174.156 15.0961 159.502 12.5886 145.956 17.7891Z" fill="#DC5925"/>
<path d="M147.246 20.5783C133.457 25.8724 124.425 38.13 123.672 51.084C123.359 56.4768 120.388 62.8166 115.348 65.8278C108.095 70.1612 104.376 73.5321 105.051 75.3029C106.013 77.8252 115.765 76.7887 131.147 72.5293C140.684 69.8884 151.787 66.1724 162.975 61.8771C174.163 57.5817 184.903 52.9115 193.762 48.4897C208.05 41.3581 216.002 35.5973 215.043 33.0742C214.369 31.303 209.359 31.283 201.076 32.9142C195.321 34.0477 188.895 31.3156 185.078 27.5086C175.909 18.3639 161.036 15.2843 147.246 20.5783Z" fill="#D23C2B"/>
<path d="M187.941 42.2131C189.268 46.7939 131.861 70.5623 129.557 63.2789C124.588 47.5711 132.627 30.465 148.749 24.6478C164.872 18.8307 183.357 26.3854 187.941 42.2131Z" fill="#282828"/>
<path d="M32.209 162L50.385 117.584L54.737 117.584L72.849 162L66.321 162L51.409 124.432L53.649 124.432L38.609 162L32.209 162ZM40.849 151.952L40.849 146.704L64.209 146.704L64.209 151.952L40.849 151.952ZM87.762 162.64C84.7753 162.64 82.066 161.936 79.634 160.528C77.2447 159.12 75.346 157.221 73.938 154.832C72.5727 152.4 71.89 149.712 71.89 146.768C71.89 143.781 72.5727 141.093 73.938 138.704C75.346 136.314 77.2447 134.437 79.634 133.072C82.066 131.664 84.7753 130.96 87.762 130.96C90.1087 130.96 92.2847 131.408 94.29 132.304C96.2953 133.157 98.0233 134.416 99.474 136.08L95.634 139.92C94.6953 138.81 93.5433 137.978 92.178 137.424C90.8553 136.826 89.3833 136.528 87.762 136.528C85.842 136.528 84.1353 136.976 82.642 137.872C81.1487 138.725 79.9753 139.92 79.122 141.456C78.2687 142.992 77.842 144.762 77.842 146.768C77.842 148.773 78.2687 150.544 79.122 152.08C79.9753 153.616 81.1487 154.832 82.642 155.728C84.1353 156.624 85.842 157.072 87.762 157.072C89.3833 157.072 90.8553 156.794 92.178 156.24C93.5433 155.642 94.7167 154.789 95.698 153.68L99.474 157.52C98.066 159.141 96.338 160.4 94.29 161.296C92.2847 162.192 90.1087 162.64 87.762 162.64ZM114.289 162.64C111.516 162.64 108.999 161.957 106.737 160.592C104.476 159.184 102.684 157.285 101.361 154.896C100.081 152.506 99.4415 149.818 99.4415 146.832C99.4415 143.845 100.081 141.157 101.361 138.768C102.684 136.378 104.455 134.48 106.673 133.072C108.935 131.664 111.473 130.96 114.289 130.96C116.593 130.96 118.641 131.45 120.433 132.432C122.268 133.37 123.74 134.693 124.849 136.4C125.959 138.064 126.577 140.005 126.705 142.224L126.705 151.376C126.577 153.552 125.959 155.493 124.849 157.2C123.783 158.906 122.332 160.25 120.497 161.232C118.705 162.17 116.636 162.64 114.289 162.64ZM115.249 157.2C118.108 157.2 120.412 156.24 122.161 154.32C123.911 152.357 124.785 149.861 124.785 146.832C124.785 144.741 124.38 142.928 123.569 141.392C122.801 139.813 121.692 138.597 120.241 137.744C118.791 136.848 117.105 136.4 115.185 136.4C113.265 136.4 111.559 136.848 110.065 137.744C108.615 138.64 107.463 139.877 106.609 141.456C105.799 142.992 105.393 144.762 105.393 146.768C105.393 148.816 105.799 150.629 106.609 152.208C107.463 153.744 108.636 154.96 110.129 155.856C111.623 156.752 113.329 157.2 115.249 157.2ZM124.401 162L124.401 153.808L125.489 146.384L124.401 139.024L124.401 131.6L130.225 131.6L130.225 162L124.401 162ZM148.275 162.64C145.459 162.64 142.942 161.957 140.723 160.592C138.505 159.184 136.734 157.285 135.411 154.896C134.131 152.506 133.491 149.818 133.491 146.832C133.491 143.845 134.131 141.157 135.411 138.768C136.734 136.378 138.505 134.48 140.723 133.072C142.942 131.664 145.46 130.96 148.276 130.96C150.537 130.96 152.585 131.45 154.419 132.432C156.254 133.37 157.726 134.693 158.835 136.4C159.988 138.064 160.628 140.005 160.755 142.224L160.755 151.376C160.627 153.552 160.009 155.493 158.9 157.2C157.79 158.906 156.318 160.25 154.483 161.232C152.649 162.17 150.579 162.64 148.275 162.64ZM149.235 157.2C151.155 157.2 152.819 156.752 154.227 155.856C155.678 154.96 156.809 153.744 157.619 152.208C158.43 150.629 158.835 148.837 158.835 146.832C158.835 144.741 158.409 142.928 157.556 141.392C156.745 139.856 155.614 138.64 154.164 137.744C152.755 136.848 151.091 136.4 149.172 136.4C147.252 136.4 145.566 136.848 144.115 137.744C142.665 138.64 141.513 139.877 140.659 141.456C139.849 142.992 139.443 144.762 139.443 146.768C139.443 148.816 139.849 150.629 140.659 152.208C141.513 153.744 142.665 154.96 144.115 155.856C145.609 156.752 147.315 157.2 149.235 157.2ZM164.275 162L158.451 162L158.452 153.808L159.539 146.384L158.452 139.024L158.452 116.304L164.276 116.304L164.275 162ZM183.541 162.64C180.512 162.64 177.781 161.957 175.349 160.592C172.917 159.184 170.997 157.285 169.589 154.896C168.181 152.506 167.477 149.797 167.477 146.768C167.477 143.781 168.16 141.093 169.525 138.704C170.933 136.314 172.811 134.437 175.157 133.072C177.547 131.664 180.213 130.96 183.157 130.96C185.973 130.96 188.448 131.6 190.581 132.88C192.757 134.16 194.443 135.93 195.637 138.192C196.875 140.453 197.493 143.013 197.493 145.872C197.493 146.298 197.472 146.768 197.429 147.28C197.387 147.749 197.301 148.304 197.173 148.944L171.509 148.944L171.509 144.144L194.101 144.144L191.989 146C191.989 143.952 191.627 142.224 190.901 140.816C190.176 139.365 189.152 138.256 187.829 137.488C186.507 136.677 184.907 136.272 183.029 136.272C181.067 136.272 179.339 136.698 177.845 137.552C176.352 138.405 175.2 139.6 174.389 141.136C173.579 142.672 173.173 144.485 173.173 146.576C173.173 148.709 173.6 150.586 174.453 152.208C175.307 153.786 176.523 155.024 178.101 155.92C179.68 156.773 181.493 157.2 183.541 157.2C185.248 157.2 186.805 156.901 188.213 156.304C189.664 155.706 190.901 154.81 191.925 153.616L195.637 157.392C194.187 159.098 192.395 160.4 190.261 161.296C188.171 162.192 185.931 162.64 183.541 162.64ZM200.574 162L200.574 131.6L206.334 131.6L206.334 162L200.574 162ZM221.118 162L221.118 143.632C221.118 141.37 220.414 139.6 219.006 138.32C217.641 136.997 215.913 136.336 213.822 136.336C212.414 136.336 211.155 136.634 210.046 137.232C208.937 137.829 208.041 138.661 207.358 139.728C206.675 140.794 206.334 142.074 206.334 143.568L203.966 142.416C203.966 140.112 204.457 138.106 205.438 136.4C206.462 134.693 207.849 133.37 209.598 132.432C211.347 131.45 213.31 130.96 215.486 130.96C217.619 130.96 219.539 131.429 221.246 132.368C222.995 133.306 224.361 134.629 225.342 136.336C226.366 138.042 226.878 140.069 226.878 142.416L226.878 162L221.118 162ZM241.662 162L241.662 143.632C241.662 141.37 240.958 139.6 239.55 138.32C238.185 136.997 236.478 136.336 234.43 136.336C233.022 136.336 231.742 136.634 230.59 137.232C229.481 137.829 228.585 138.661 227.902 139.728C227.219 140.794 226.878 142.074 226.878 143.568L223.614 142.416C223.742 140.069 224.361 138.064 225.47 136.4C226.622 134.693 228.094 133.37 229.886 132.432C231.678 131.45 233.641 130.96 235.774 130.96C237.993 130.96 239.977 131.429 241.726 132.368C243.475 133.306 244.862 134.629 245.886 136.336C246.953 138.042 247.486 140.09 247.486 142.48L247.486 162L241.662 162ZM262.108 162.256L248.924 131.6L255.324 131.6L265.116 155.6L263.068 155.6L273.372 131.6L279.772 131.6L265.564 162.256L262.108 162.256ZM253.404 174.736L262.364 156.368L265.564 162.256L259.804 174.736L253.404 174.736Z" fill="url(#paint0_linear_396_4)" fill-opacity="0.73"/>
</g>
<defs>
<linearGradient id="paint0_linear_396_4" x1="155" y1="114" x2="155" y2="172" gradientUnits="userSpaceOnUse">
<stop offset="0.9999" stop-color="white"/>
<stop offset="1" stop-color="#1D1D1D"/>
</linearGradient>
<clipPath id="clip0_396_4">
<rect width="311" height="172" fill="white"/>
</clipPath>
</defs>
</svg>
